<?xml version="1.0" encoding="UTF-8" standalone="no"?>
<svg viewBox="0 0 259.91238 260.87427" xmlns="http://www.w3.org/2000/svg">
<title>Direct Action Rabbit</title>
<path d="m107.60566,259.1848c-38.78573-8.478-66.4217-27.55545-87.84292-60.63906-7.19334-11.10963-13.59408-27.43131-17.49358-44.60807-2.30895-10.17062-2.52151-12.80092-2.08686-25.82403 1.18388-35.4715 16.17293-67.43651 43.80807-93.42322 30.47422-28.65643 71.52561-40.34118 112.82728-32.11484 23.99289,4.77883 44.11497,14.36371 59.05468,28.12989 19.19037,17.68295 29.59233,33.41504 37.53708,56.77172 4.80541,14.12733 6.49829,25.00267 6.50297,41.77598 .004,15.41501-1.54922,25.45744-6.24359,40.36047-12.00867,38.1234-42.10992,69.60241-80.40163,84.08167-17.36948,6.56793-48.73234,9.18995-65.6615,5.48949zm21.41275-27.20231c.47693-.75287.87405-4.36068.88247-8.01736l.0153-6.64851-7.19228-.72229-7.19228-.72229-3.7419,4.01152c-4.65327,4.98855-6.1199,10.82047-3.26486,12.98243 2.50895,1.89989 19.18573,1.18093 20.49354-.8835zm27.70341-4.58064c.63108-8.69671-3.59737-11.55012-15.7296-10.61455-6.77901.52276-8.04397.88941-7.67995,2.22609 .23969.88014.73012,3.7639 1.08985,6.40836 .81949,6.02437 2.18547,6.67099 13.51407,6.39727l8.5-.20538 .30563-4.21179zm-48.04644-7.80059 2.2592-3.48762h-2.57494c-3.66005,0-6.44345-1.74309-6.44345-4.03518 0-1.84394-.73829-1.96482-12-1.96482-6.6,0-12,.20298-12,.45106 0,.75862 12.99335,7.76781 18.91733,10.20485 7.57743,3.11723 9.16742,2.96037 11.84186-1.16829zm59.34998.0511c4.06496-1.90369 8.71725-4.35601 10.33844-5.44962l2.94761-1.98838-2.94761-1.18354c-1.62119-.65095-5.24448-1.3989-8.05176-1.66211-4.51148-.42301-5.16619-.24134-5.63844,1.56457-.35679,1.36435-1.9003,2.41098-4.64586,3.15028-2.43482.65563-4.11155,1.70312-4.11155,2.56858 0,.8038.44143,1.46146.98095,1.46146s1.2633,1.125 1.60841,2.5 .9653,2.5 1.37822,2.5 4.07663-1.55756 8.14159-3.46124zm48.39083-3.50167c1.60463-.65981 1.70347-.93565.5-1.39535-11.85898-4.52988-13.14691-4.82349-15.9909-3.64547-2.92975,1.21354-4.45818,3.46813-3.45333,5.09401 .6934,1.12194 16.19218,1.07842 18.94423-.0532zm-17.04506-13.53705c3.94604-10.20209 5.15653-12.33711 8.07923-14.25 4.39484-2.87639 4.90971-2.84747 14.06648.78998 4.209,1.67199 7.85389,2.83881 8.09977,2.59293 .56914-.56914-2.11593-5.51188-4.43005-8.15491-4.20093-4.79803-14.85969-12.478-17.31778-12.478-2.31755,0-3.00814,1.02101-6.8748,10.16411-2.36414,5.59026-5.1172,12.45276-6.11791,15.25s-2.75106,7.45322-3.88967,10.34662-2.07021,5.63713-2.07021,6.09718c0,1.14882 4.34427,3.06985 5.15674,2.2803 .3612-.35102 2.74539-6.03821 5.2982-12.63821zm-42.20494,9.24834c5.12978-1.2165 5.28299-1.5424 3.78689-8.05552-.52971-2.30605-2.13906-10.26782-3.57632-17.69282-1.43726-7.425-3.02886-13.9275-3.53689-14.45-.5797-.59622-.92368-.50841-.92368.23581 0,.6522-1.79393,2.37298-3.9865,3.82396l-3.98651,2.63814-5.36316-2.62396c-2.94975-1.44317-5.79663-2.62395-6.32641-2.62395s-2.28493,1.39529-3.90033,3.10064c-4.1891,4.42236-6.78843,5.19723-11.22127,3.34507-2.02869-.84764-4.70539-2.49646-5.94823-3.66405s-2.46327-1.91931-2.71208-1.6705-1.13296,6.28808-1.96477,13.42061-1.81234,15.51619-2.17892,18.63036l-.66653,5.66213 5.37736.59685c14.5327,1.61302 38.95896,1.26432 47.12735-.67277zm-23.25-29.53256c-3.47221-1.19368-4.03971-5.58898-.93608-7.24999 1.53199-.8199 2.43404-.79741 3.5.0873 3.01787,2.50461.92156,8.36098-2.56392,7.16273zm2-3.71578c0-.825-.675-1.5-1.5-1.5s-1.5.675-1.5,1.5 .675,1.5 1.5,1.5 1.5-.675 1.5-1.5zm50.50555,30.49387c2.19659-2.42721 1.81516-2.86543-4.81335-5.52998-2.85571-1.14794-5.07569-2.50943-4.9333-3.02553 2.13699-7.74517 4.75359-14.43836 5.64446-14.43836 .61868,0 3.57534.89568 6.57036,1.9904s5.76039,1.65721 6.14526,1.25c1.46667-1.55183 7.14357-16.31118 6.51539-16.93936-.98592-.98592-7.01469,2.15823-17.63437,9.19676-8.53124,5.65436-10.18732,6.36968-16.24008,7.01475-6.66536.71036-6.73265.74752-6.06973,3.35288 .36869,1.44902 1.17013,5.10957 1.78098,8.13457l1.11064,5.5 4.4591.0609c2.79555.0382 6.32442,1.04677 9.45909,2.70344 6.08675,3.21684 5.77983,3.18888 8.00555.72949zm15.26528-1.80637c.59996-1.79986-1.467-1.42165-2.16452.39606-.37373.97391-.15024,1.43108.58051,1.1875 .6535-.21783 1.3663-.93044 1.58401-1.58356zm-99.33876-3.4375c.2586-1.2375.63339-5.0625.83287-8.5l.36268-6.25-19.06381.0327c-20.97923.036-32.39821,1.09957-33.69044,3.13794-1.28098,2.02062-1.03502,9.23929.37663,11.05385 1.86422,2.3963 3.3086,2.53358 27.98095,2.65949l22.73095.11602 .47017-2.25zm-46.27864-1.5c-3.2396-2.74125-3.72993-6.6735-1.15343-9.25 2.4087-2.4087 6.08736-2.11723 9.25.7329 2.00164,1.80385 2.33401,7.28309.55,9.0671-1.75279,1.75279-6.26428,1.46582-8.64657-.55zm6.73192-1.15798c2.23819-1.41747.54632-5.94557-2.50791-6.71214-4.39071-1.102-6.32871,4.90025-2.12744,6.58896 2.89092,1.16201 2.99084,1.16466 4.63535.12318zm127.77352-.76648c-.62845-.62845-6.65887.91642-6.65887,1.70586 0,.42977 1.57462.29814 3.49915-.29252s3.3464-1.22666 3.15972-1.41334zm-4.15887-1.32554c2-.85943 2-.85943 0-.9144-1.1-.0302-2.675.38124-3.5.9144-1.33333.86167-1.33333.96327 0,.9144 .825-.0302 2.4-.44171 3.5-.9144zm4.6875-1.68311c-.72188-.28887-1.58438-.25335-1.91667.0789s.25834.56864 1.3125.52522c1.16495-.048 1.4019-.28494.60417-.60416zm-2.26379-1.48864c2.79196-.64446 5.07629-1.5926 5.07629-2.10699s-.57405-.71495-1.27567-.44572-3.85162,1.02429-7,1.67789-5.72433,1.38146-5.72433,1.61747c0,.76609 3.73356.45538 8.92371-.74265zm-.007-5.47189c.22912-.196-1.23338-.35636-3.25004-.35636s-3.66667.43875-3.66667.975c0,.86141 5.79185.34337 6.91667-.61864zm-111.17475-4.74555 18.49669-1.11081-4.65724-3.33936c-10.31843-7.3986-18.7754-20.7793-22.61058-35.77469-5.97749-23.37178 2.52158-49.89052 20.92882-65.30192l4.81996-4.0355-1.3598-5.24219c-.7479-2.88321-1.35981-9.86912-1.35981-15.52426s-.38246-10.28207-.84992-10.28207c-1.80948,0-19.41196,11.76249-25.06219,16.74729-7.07222,6.23931-16.99873,19.26858-21.10362,27.70002-1.62072,3.32898-4.37738,11.45269-6.1259,18.05269-2.77424,10.47169-3.18435,13.65567-3.2201,25-.0326,10.35652.41403,14.72843 2.19658,21.5 2.44793,9.29924 8.32553,22.46586 13.17573,29.51537 2.67701,3.89091 3.43994,4.40966 5.6642,3.85141 1.41377-.35484 10.894-1.14502 21.06718-1.75597zm82.99636-5.11179c-1.48289-4.83168-2.75967-4.42094-1.5139.48701 .55647,2.19232 1.36637,3.76688 1.79977,3.49902s.30476-2.06157-.28587-3.98603zm22.38229-1.57187c5.52942-3.34007 12.07663-6.94007 14.54935-8 5.51219-2.3628 12.54764-2.4859 15.91657-.2785 3.10638,2.03538 3.49147,1.62574 6.72034-7.14865 3.97432-10.80012 4.82009-14.97121 5.56485-27.44432 1.82887-30.62935-6.326-52.30275-27.59991-73.35295-10.23853-10.13086-17.81011-15.47121-27.91765-19.69075-6.96751-2.90869-18.38528-6.31419-19.02501-5.67446-.17577.17576.63578,4.0975 1.80344,8.71497 1.59509,6.30771 1.98801,10.14257 1.58008,15.42146l-.54295,7.02606 6.69039,3.20082c12.84381,6.14476 25.25605,19.75454 30.08588,32.98857 6.87366,18.83427 6.09824,38.00726-2.22776,55.08339-3.61207,7.40816-14.39005,20.48902-18.73191,22.73429-3.77188,1.95051-3.76161,2.49292.0472,2.49292 1.9414,0 6.65307-2.18638 13.08706-6.07285zm-77.12061,2.95482c0-.55-.45-.72189-1-.38197s-1,1.06803-1,1.61803 .45.72189 1,.38197 1-1.06803 1-1.61803zm20.25-6.27402c2.88447-2.18962 2.07348-2.60902-5-2.58571l-6.75.0222 2.5,1.95556c2.8915,2.26177 6.73831,2.5146 9.25.60795zm22-3c2.53848-1.92698 2.14922-2.73052-1-2.06426l-5.19785,1.08776c-1.93514.39999-2.14459.69782-1,1.42195 2.05294,1.29878 5.15283,1.10695 7.19785-.44545zm.0587-5.01881c10.5461-2.60721 19.18854-9.76953 24.32216-20.1567 4.38317-8.86874 5.1008-14.58693 2.97325-23.69137-3.61003-15.44841-13.47668-28.61185-26.33428-35.13352l-3.23019-1.63842 1.92745-5.23457c3.81808-10.36913 5.35917-21.17572 4.16489-29.20551-1.23287-8.28923-6.41826-23.44182-9.16781-26.78992-2.40764-2.93174-4.36405-1.76566-8.07513,4.81304-6.60115,11.70201-7.38685,24.14897-3.31716,52.54998l.65946,4.60216-4.7373,1.19287c-2.60551.65607-4.9733.95686-5.26175.66841-.57959-.57959-1.51397-5.93645-3.70726-21.25409-2.24989-15.71287-6.9867-25.60765-16.83907-35.17538l-4.49369-4.36387-1.29304,2.36387c-1.78663,3.26622-2.52805,32.30945-.98158,38.45103 .63605,2.52597 3.40115,9.56774 6.14468,15.6484 4.24056,9.39863 4.79708,11.31643 3.71296,12.79502l-6.0604,8.28058c-17.1099,23.38928-11.78623,57.16238 9.87442,62.64277 5.32144,1.34638 32.53517.4113 39.71939-1.36479zm-18.96367-7.41788c2.05187-2.26731 2.09605-3.17126.15497-3.17126-.825,0-1.5-.50888-1.5-1.13084 0-.74165 1.24944-.92809 3.63034-.54172 2.34445.38045 4.6797.0465 6.59293-.9429 1.62942-.84261 3.25827-1.21222 3.61966-.82137s.0946.91153-.59293,1.15707c-1.94584.69494-1.47457,1.98777.95633,2.62347 3.39101.88677 1.19015,2.1096-3.22335,1.79093-2.37506-.17148-4.82192.33957-6.1799,1.29074-1.23645.86604-2.89271,1.57462-3.68057,1.57462-1.1622,0-1.12021-.34506.2225-1.82874zm-24.94687-18.57606c-.84807-2.21003-.0154-7.90277 1.21491-8.30588 1.88231-.61675 3.7374,5.1873 2.43549,7.61995-1.29196,2.41404-2.87324,2.71117-3.6504.68593zm51.67681-8.54886c-1.70288-1.05244-1.86639-6.65492-.24164-8.27967 1.70982-1.70982 3.5.45545 3.5,4.23333 0,3.65235-1.29459,5.26001-3.25836,4.04634zm-31.32497-68.67663c1.99026-.53337 2.25378-1.25329 2.28272-6.23634 .0336-5.78047 1.38263-17.03326 2.47957-20.68259 .6026-2.00476.41386-2.0304-8.69816-1.18191-10.24998.95445-11.97921,1.75623-9.61373,4.45751 2.24014,2.55814 5.30469,9.98873 6.72611,16.30871 2.00035,8.89412 1.80158,8.68045 6.82349,7.33463z"/>
</svg>
